<?xml version="1.0" encoding="UTF-8"?>
<svg id="Capa_2" data-name="Capa 2" xmlns="http://www.w3.org/2000/svg" width="1328.92" height="380.29" viewBox="0 0 1328.92 380.29">
  <g id="Capa_1-2" data-name="Capa 1">
    <g>
      <g>
        <path d="M576.27,207.12h61.67c26.52,0,46.41,19.29,46.41,45.2s-19.89,45-46.41,45h-37.77v48.41h-23.91v-138.62ZM600.18,229.62v45.2h37.37c12.66,0,22.3-9.64,22.3-22.5s-9.64-22.7-22.3-22.7h-37.37Z" fill="#032c28"/>
        <path d="M730.63,207.12h28.33l54.64,138.62h-26.32l-11.25-29.53h-63.08l-11.25,29.53h-25.71l54.64-138.62ZM767.6,294.11l-23.1-60.87-23.1,60.87h46.21Z" fill="#032c28"/>
        <path d="M812.47,276.43c0-40.78,31.54-71.72,72.92-71.72,34.75,0,62.48,21.9,69.31,52.63h-25.31c-6.23-17.68-23.3-29.53-44-29.53-27.32,0-48.21,20.89-48.21,48.62s20.89,48.62,48.21,48.62c20.69,0,37.77-11.85,44-29.53h25.31c-6.83,30.74-34.55,52.63-69.31,52.63-41.38,0-72.92-30.94-72.92-71.72Z" fill="#032c28"/>
        <path d="M973.79,207.12h23.91v65.49l57.46-65.49h29.53l-55.85,64.49,30.54,39.38c6.03,8.04,13.06,12.25,21.29,12.25h5.22v22.5h-7.83c-17.28,0-30.13-6.83-39.17-20.49l-26.32-34.75-14.87,17.28v37.97h-23.91v-138.62Z" fill="#032c28"/>
      </g>
      <path d="M137.59,303.23c-9.54,2.35-17.91,8.9-15.95,18.49,1.98,11.93,13.6,26.84,20.86,37.97,6.59,9.66,15.2,21.46,28.2,19.56,14.62-2.75,21.6-19.75,30.55-31.88,12.05-17.34,22.14-32.14,1.46-41.01-16.38-6.67-47.97-7.29-64.92-3.2l-.21.06ZM368.27,0h-172.71c-52.45,0-99.25,32.91-116.99,82.27L4.05,289.6c-15.88,44.16,16.85,90.69,63.78,90.69h4.77c-9.44-11.55-14.54-26.89-13.1-41.97,2.99-31.51,31.95-35.79,45.42-59.42,18.34-32.22,2.97-77.17,58.8-83.02,24.1-2.52,50.98,13.07,58.2,36.71,4.8,15.72,3.48,31.08,12.69,46.82,14.29,24.46,47.69,29.1,46.01,67.28-.62,14.1-5.43,25.23-12.94,33.6h4.83c46.91,0,79.63-46.51,63.79-90.66-.7-1.94-1.02-3.9-1.02-5.8,0-9.06,7.34-17.07,17.11-17.07h15.89c79.37,0,138.89-57.32,138.89-133.38S447.64,0,368.27,0ZM368.27,167.55h-67.21c-5.14,0-9.72-3.22-11.47-8.06l-15.78-43.99c-2.84-7.93,3.04-16.29,11.47-16.29h83c20.95,0,36.93,14.89,36.93,34.17s-15.98,34.17-36.93,34.17Z" fill="#c4e615"/>
      <g>
        <path d="M626.09,34.55h45.2l49.82,138.62h-41.99l-6.23-19.09h-49.22l-6.23,19.09h-41.18l49.82-138.62ZM661.65,118.73l-13.26-41.58-13.46,41.58h26.72Z" fill="#032c28"/>
        <path d="M728.04,34.55h64.29c29.13,0,51.23,20.89,51.23,48.82,0,19.49-11.25,35.16-28.33,42.39l.4.6c5.22,7.23,12.46,10.65,22.1,10.65h6.83v36.16h-11.05c-25.92,0-43.79-9.64-54.04-29.13l-7.23-13.86h-5.83v42.99h-38.37V34.55ZM766.41,70.71v26.12h25.11c7.23,0,12.66-5.63,12.66-13.06s-5.42-13.06-12.66-13.06h-25.11Z" fill="#032c28"/>
        <path d="M852.61,103.86c0-40.78,31.74-71.72,73.73-71.72,34.15,0,62.48,20.49,68.91,48.42h-42.79c-5.83-7.03-15.07-11.45-26.12-11.45-19.49,0-34.35,14.87-34.35,34.76s14.87,34.75,34.35,34.75c12.05,0,21.7-5.22,27.12-13.26h-23.3v-34.76h66.9v82.57h-32.34v-12.46c-8.64,10.05-21.7,14.87-38.37,14.87-41.99,0-73.73-30.94-73.73-71.72Z" fill="#032c28"/>
        <path d="M1008.54,103.86c0-40.78,31.74-71.72,73.73-71.72s73.73,30.94,73.73,71.72-31.74,71.72-73.73,71.72-73.73-30.94-73.73-71.72ZM1116.62,103.86c0-19.89-14.87-34.76-34.35-34.76s-34.35,14.87-34.35,34.76,14.87,34.75,34.35,34.75,34.35-14.87,34.35-34.75Z" fill="#032c28"/>
        <path d="M1169.01,85.78c6.03-.8,10.45-3.42,13.66-8.24-9.64-2.81-16.27-11.45-16.27-22.3,0-13.06,9.64-23.1,23.5-23.1,12.25,0,23.1,7.83,23.1,26.92,0,27.12-21.9,50.63-44,52.63v-25.91Z" fill="#032c28"/>
        <path d="M1220.64,130.18h39.38c0,6.23,7.03,11.25,15.67,11.25,7.43,0,13.86-3.62,13.86-8.24,0-15.47-66.9-9.24-66.9-56.25,0-26.92,22.5-44.8,51.83-44.8s52.43,18.68,52.43,43.59h-39.38c0-5.42-5.83-9.44-13.46-9.44-6.43,0-12.05,2.81-12.05,7.63,0,16.07,66.9,6.43,66.9,54.84,0,28.33-23.5,46.81-53.64,46.81s-54.64-19.89-54.64-45.4Z" fill="#032c28"/>
      </g>
    </g>
  </g>
</svg>