<?xml version="1.0" encoding="UTF-8"?>
<svg id="Capa_2" data-name="Capa 2" xmlns="http://www.w3.org/2000/svg" width="531.62" height="398.63" viewBox="0 0 531.62 398.63">
  <g id="Capa_1-2" data-name="Capa 1">
    <path d="M144.22,317.85c-10,2.46-18.77,9.33-16.72,19.39,2.08,12.51,14.26,28.13,21.87,39.8,6.9,10.12,15.94,22.5,29.56,20.5,15.33-2.88,22.65-20.7,32.03-33.41,12.63-18.18,23.21-33.69,1.53-42.98-17.17-6.99-50.28-7.64-68.05-3.35l-.22.06ZM386.03,0h-181.04c-54.98,0-104.04,34.5-122.63,86.24L4.25,303.56c-16.64,46.29,17.67,95.07,66.86,95.07h5c-9.9-12.11-15.24-28.19-13.73-44,3.13-33.03,33.49-37.51,47.61-62.29,19.23-33.77,3.11-80.89,61.64-87.02,25.26-2.65,53.43,13.7,61.01,38.48,5.04,16.48,3.65,32.57,13.3,49.08,14.98,25.64,49.98,30.5,48.23,70.53-.65,14.78-5.69,26.44-13.57,35.22h5.06c49.17,0,83.47-48.75,66.87-95.03-.73-2.04-1.07-4.08-1.07-6.08,0-9.5,7.69-17.9,17.93-17.9h16.65c83.19,0,145.59-60.08,145.59-139.81S469.22,0,386.03,0ZM386.03,175.63h-70.45c-5.39,0-10.19-3.38-12.02-8.45l-16.54-46.11c-2.97-8.31,3.18-17.08,12.02-17.08h87c21.96,0,38.71,15.6,38.71,35.82s-16.75,35.82-38.71,35.82Z" fill="#c4e615"/>
  </g>
</svg>