<?xml version="1.0" encoding="UTF-8"?>
<svg id="Capa_2" data-name="Capa 2" xmlns="http://www.w3.org/2000/svg" width="732.77" height="499.64" viewBox="0 0 732.77 499.64">
  <g id="Capa_1-2" data-name="Capa 1">
    <g>
      <g>
        <g opacity=".5">
          <path d="M209.42,407.57h40.26c17.31,0,30.3,12.59,30.3,29.51s-12.98,29.38-30.3,29.38h-24.66v31.61h-15.61v-90.5ZM225.03,422.26v29.51h24.39c8.26,0,14.56-6.3,14.56-14.69s-6.3-14.82-14.56-14.82h-24.39Z" fill="#032c28"/>
          <path d="M310.2,407.57h18.49l35.67,90.5h-17.18l-7.34-19.28h-41.18l-7.34,19.28h-16.79l35.67-90.5ZM334.33,464.36l-15.08-39.74-15.08,39.74h30.17Z" fill="#032c28"/>
          <path d="M363.63,452.82c0-26.62,20.59-46.82,47.61-46.82,22.69,0,40.79,14.3,45.25,34.36h-16.53c-4.07-11.54-15.21-19.28-28.72-19.28-17.84,0-31.48,13.64-31.48,31.74s13.64,31.74,31.48,31.74c13.51,0,24.66-7.74,28.72-19.28h16.53c-4.46,20.07-22.56,34.36-45.25,34.36-27.02,0-47.61-20.2-47.61-46.82Z" fill="#032c28"/>
          <path d="M468.94,407.57h15.61v42.76l37.51-42.76h19.28l-36.46,42.1,19.94,25.71c3.93,5.25,8.52,8,13.9,8h3.41v14.69h-5.12c-11.28,0-19.67-4.46-25.58-13.38l-17.18-22.69-9.71,11.28v24.79h-15.61v-90.5Z" fill="#032c28"/>
        </g>
        <g>
          <path d="M48.51,228.14h44.01l48.51,134.96h-40.88l-6.06-18.58h-47.92l-6.06,18.58H0l48.51-134.96ZM83.13,310.09l-12.91-40.49-13.1,40.49h26.01Z" fill="#032c28"/>
          <path d="M147.76,228.14h62.59c28.36,0,49.88,20.34,49.88,47.53,0,18.97-10.95,34.23-27.58,41.27l.39.59c5.09,7.04,12.13,10.37,21.52,10.37h6.65v35.21h-10.76c-25.23,0-42.64-9.39-52.61-28.36l-7.04-13.5h-5.67v41.86h-37.36v-134.96ZM185.12,263.35v25.43h24.45c7.04,0,12.32-5.48,12.32-12.71s-5.28-12.71-12.32-12.71h-24.45Z" fill="#032c28"/>
          <path d="M269.04,295.62c0-39.71,30.9-69.83,71.78-69.83,33.25,0,60.83,19.95,67.09,47.14h-41.66c-5.67-6.85-14.67-11.15-25.43-11.15-18.97,0-33.45,14.47-33.45,33.84s14.47,33.84,33.45,33.84c11.74,0,21.12-5.09,26.4-12.91h-22.69v-33.84h65.13v80.39h-31.49v-12.13c-8.41,9.78-21.12,14.47-37.36,14.47-40.88,0-71.78-30.12-71.78-69.83Z" fill="#032c28"/>
          <path d="M420.86,295.62c0-39.71,30.9-69.83,71.78-69.83s71.78,30.12,71.78,69.83-30.9,69.83-71.78,69.83-71.78-30.12-71.78-69.83ZM526.08,295.62c0-19.36-14.47-33.84-33.45-33.84s-33.45,14.47-33.45,33.84,14.47,33.84,33.45,33.84,33.45-14.47,33.45-33.84Z" fill="#032c28"/>
          <path d="M577.09,278.02c5.87-.78,10.17-3.33,13.3-8.02-9.39-2.74-15.84-11.15-15.84-21.71,0-12.71,9.39-22.49,22.88-22.49,11.93,0,22.49,7.63,22.49,26.21,0,26.4-21.32,49.29-42.83,51.24v-25.23Z" fill="#032c28"/>
          <path d="M627.35,321.24h38.34c0,6.06,6.85,10.95,15.26,10.95,7.24,0,13.5-3.52,13.5-8.02,0-15.06-65.13-9-65.13-54.76,0-26.21,21.91-43.62,50.46-43.62s51.05,18.19,51.05,42.44h-38.34c0-5.28-5.67-9.19-13.1-9.19-6.26,0-11.74,2.74-11.74,7.43,0,15.65,65.13,6.26,65.13,53.4,0,27.58-22.88,45.57-52.22,45.57s-53.2-19.36-53.2-44.2Z" fill="#032c28"/>
        </g>
      </g>
      <path d="M310.52,146.04c-4.6,1.13-8.62,4.29-7.68,8.91.95,5.75,6.55,12.92,10.05,18.29,3.17,4.65,7.32,10.34,13.58,9.42,7.04-1.32,10.4-9.51,14.71-15.35,5.8-8.35,10.66-15.48.7-19.75-7.89-3.21-23.1-3.51-31.26-1.54l-.1.03ZM421.63,0h-83.18c-25.26,0-47.8,15.85-56.34,39.62l-35.89,99.85c-7.65,21.27,8.12,43.68,30.72,43.68h2.3c-4.55-5.56-7-12.95-6.31-20.22,1.44-15.17,15.39-17.24,21.87-28.62,8.83-15.52,1.43-37.17,28.32-39.98,11.61-1.22,24.55,6.3,28.03,17.68,2.31,7.57,1.67,14.97,6.11,22.55,6.88,11.78,22.97,14.01,22.16,32.4-.3,6.79-2.62,12.15-6.23,16.18h2.32c22.59,0,38.35-22.4,30.72-43.66-.34-.94-.49-1.88-.49-2.8,0-4.36,3.53-8.22,8.24-8.22h7.65c38.22,0,66.89-27.6,66.89-64.24S459.85,0,421.63,0ZM421.63,80.69h-32.37c-2.48,0-4.68-1.55-5.52-3.88l-7.6-21.18c-1.37-3.82,1.46-7.85,5.52-7.85h39.97c10.09,0,17.78,7.17,17.78,16.46s-7.7,16.46-17.78,16.46Z" fill="#bbe70e"/>
    </g>
  </g>
</svg>